<svg width="168" height="43" viewBox="0 0 168 43" fill="none" xmlns="http://www.w3.org/2000/svg">
    <path d="M76.9008 33.3752C74.3704 33.3752 73.0583 32.0748 73.0583 29.5678V15.3107C73.0583 12.8037 74.3704 11.5034 76.9008 11.5034H91.0876C93.618 11.5034 94.9301 12.8037 94.9301 15.3107V29.5678C94.9301 32.0631 93.618 33.3752 91.0876 33.3752H76.9008ZM82.7231 28.2089C83.1565 28.2089 83.5314 27.9863 83.8009 27.588L89.2835 19.0361C89.4475 18.7784 89.588 18.4855 89.588 18.216C89.588 17.6069 89.0609 17.1968 88.4751 17.1968C88.1002 17.1968 87.7722 17.396 87.5262 17.806L82.6762 25.5613L80.4153 22.6911C80.1224 22.3163 79.8412 22.1757 79.4781 22.1757C78.8689 22.1757 78.4003 22.6677 78.4003 23.2652C78.4003 23.5581 78.5057 23.8392 78.7166 24.0969L81.5867 27.588C81.9148 28.0097 82.2779 28.2089 82.7231 28.2089Z"
          fill="black"/>
</svg>
