<svg width="215" height="140" viewBox="0 0 215 140" fill="none" xmlns="http://www.w3.org/2000/svg">
<g clip-path="url(#clip0_383_597)">
<path d="M188.64 93.8402C188.432 93.592 188.281 93.3014 188.198 92.9889C188.114 92.6763 188.101 92.3494 188.159 92.0312C188.216 91.713 188.343 91.4112 188.53 91.147C188.718 90.8829 188.961 90.6628 189.243 90.5024L187.788 82.7773L191.573 84.3593L192.374 91.4526C192.613 91.9421 192.664 92.5019 192.517 93.0261C192.369 93.5502 192.033 94.0023 191.573 94.2966C191.113 94.5909 190.56 94.707 190.019 94.6229C189.479 94.5388 188.988 94.2603 188.64 93.8402Z" fill="#FFB6B6"/>
<path d="M179.649 4.53223H13.5139V82.9738H179.649V4.53223Z" fill="#E6E6E6"/>
<path d="M174.898 11.2588H18.2644V76.7051H174.898V11.2588Z" fill="white"/>
<path d="M179.578 0H13.4429V7.02278H179.578V0Z" fill="#94ABBF"/>
<path d="M18.6878 4.54958C19.4103 4.54958 19.9959 3.96682 19.9959 3.24794C19.9959 2.52906 19.4103 1.94629 18.6878 1.94629C17.9653 1.94629 17.3796 2.52906 17.3796 3.24794C17.3796 3.96682 17.9653 4.54958 18.6878 4.54958Z" fill="white"/>
<path d="M23.6531 4.54958C24.3756 4.54958 24.9613 3.96682 24.9613 3.24794C24.9613 2.52906 24.3756 1.94629 23.6531 1.94629C22.9307 1.94629 22.345 2.52906 22.345 3.24794C22.345 3.96682 22.9307 4.54958 23.6531 4.54958Z" fill="white"/>
<path d="M28.6187 4.54958C29.3412 4.54958 29.9269 3.96682 29.9269 3.24794C29.9269 2.52906 29.3412 1.94629 28.6187 1.94629C27.8962 1.94629 27.3105 2.52906 27.3105 3.24794C27.3105 3.96682 27.8962 4.54958 28.6187 4.54958Z" fill="white"/>
<path d="M27.4249 53.3652C27.2433 53.3659 27.0694 53.4381 26.9412 53.5662C26.813 53.6942 26.741 53.8675 26.741 54.0483C26.741 54.229 26.813 54.4023 26.9412 54.5304C27.0694 54.6584 27.2433 54.7306 27.4249 54.7313H65.0914C65.2731 54.7306 65.447 54.6584 65.5752 54.5304C65.7034 54.4023 65.7754 54.229 65.7754 54.0483C65.7754 53.8675 65.7034 53.6942 65.5752 53.5662C65.447 53.4381 65.2731 53.3659 65.0914 53.3652H27.4249Z" fill="#E6E6E6"/>
<path d="M27.4249 57.4629C27.2433 57.4635 27.0694 57.5358 26.9412 57.6638C26.813 57.7918 26.741 57.9652 26.741 58.1459C26.741 58.3266 26.813 58.5 26.9412 58.628C27.0694 58.756 27.2433 58.8283 27.4249 58.8289H46.6545C46.8361 58.8283 47.01 58.756 47.1383 58.628C47.2665 58.5 47.3384 58.3266 47.3384 58.1459C47.3384 57.9652 47.2665 57.7918 47.1383 57.6638C47.01 57.5358 46.8361 57.4635 46.6545 57.4629H27.4249Z" fill="#E6E6E6"/>
<path d="M65.1388 65.2014H50.8306C50.6453 65.2012 50.4676 65.1278 50.3366 64.9974C50.2055 64.8671 50.1318 64.6903 50.1316 64.5059V62.2248C50.1318 62.0404 50.2055 61.8636 50.3366 61.7332C50.4676 61.6028 50.6453 61.5295 50.8306 61.5293H65.1388C65.3241 61.5295 65.5018 61.6028 65.6328 61.7332C65.7638 61.8636 65.8375 62.0404 65.8378 62.2248V64.5059C65.8375 64.6903 65.7638 64.8671 65.6328 64.9974C65.5018 65.1278 65.3241 65.2012 65.1388 65.2014Z" fill="#94ABBF"/>
<path d="M65.1388 41.4475H50.8306C50.6453 41.4473 50.4676 41.3739 50.3366 41.2435C50.2055 41.1132 50.1318 40.9364 50.1316 40.752V38.4709C50.1318 38.2865 50.2055 38.1097 50.3366 37.9793C50.4676 37.8489 50.6453 37.7756 50.8306 37.7754H65.1388C65.3241 37.7756 65.5018 37.8489 65.6328 37.9793C65.7638 38.1097 65.8375 38.2865 65.8378 38.4709V40.752C65.8375 40.9364 65.7638 41.1132 65.6328 41.2435C65.5018 41.3739 65.3241 41.4473 65.1388 41.4475Z" fill="#94ABBF"/>
<path d="M90.3584 22.7041C90.1211 22.7045 89.8936 22.7985 89.7259 22.9656C89.5583 23.1327 89.4641 23.3592 89.4641 23.5953C89.4641 23.8315 89.5583 24.0579 89.7259 24.225C89.8936 24.3921 90.1211 24.4862 90.3584 24.4866H165.271C165.509 24.4862 165.736 24.3921 165.904 24.225C166.071 24.0579 166.166 23.8315 166.166 23.5953C166.166 23.3592 166.071 23.1327 165.904 22.9656C165.736 22.7985 165.509 22.7045 165.271 22.7041H90.3584Z" fill="#E6E6E6"/>
<path d="M90.3584 28.0527C90.1211 28.0531 89.8936 28.1472 89.7259 28.3143C89.5583 28.4814 89.4641 28.7078 89.4641 28.944C89.4641 29.1801 89.5583 29.4066 89.7259 29.5737C89.8936 29.7408 90.1211 29.8348 90.3584 29.8352H141.214C141.451 29.8348 141.679 29.7408 141.847 29.5737C142.014 29.4066 142.108 29.1801 142.108 28.944C142.108 28.7078 142.014 28.4814 141.847 28.3143C141.679 28.1472 141.451 28.0531 141.214 28.0527H90.3584Z" fill="#E6E6E6"/>
<path d="M90.3584 33.2793C90.1211 33.2797 89.8936 33.3737 89.7259 33.5408C89.5583 33.7079 89.4641 33.9344 89.4641 34.1705C89.4641 34.4067 89.5583 34.6331 89.7259 34.8002C89.8936 34.9673 90.1211 35.0614 90.3584 35.0618H165.271C165.509 35.0614 165.736 34.9673 165.904 34.8002C166.071 34.6331 166.166 34.4067 166.166 34.1705C166.166 33.9344 166.071 33.7079 165.904 33.5408C165.736 33.3737 165.509 33.2797 165.271 33.2793H90.3584Z" fill="#E6E6E6"/>
<path d="M90.3584 38.627C90.1211 38.6273 89.8936 38.7214 89.7259 38.8885C89.5583 39.0556 89.4641 39.2821 89.4641 39.5182C89.4641 39.7543 89.5583 39.9808 89.7259 40.1479C89.8936 40.315 90.1211 40.4091 90.3584 40.4094H141.214C141.451 40.4091 141.679 40.315 141.847 40.1479C142.014 39.9808 142.108 39.7543 142.108 39.5182C142.108 39.2821 142.014 39.0556 141.847 38.8885C141.679 38.7214 141.451 38.6273 141.214 38.627H90.3584Z" fill="#E6E6E6"/>
<path d="M165.491 50.1936H151.183C150.997 50.1934 150.82 50.12 150.689 49.9896C150.558 49.8592 150.484 49.6825 150.484 49.4981V47.217C150.484 47.0326 150.558 46.8558 150.689 46.7254C150.82 46.595 150.997 46.5217 151.183 46.5215H165.491C165.676 46.5217 165.854 46.595 165.985 46.7254C166.116 46.8558 166.19 47.0326 166.19 47.217V49.4981C166.19 49.6825 166.116 49.8592 165.985 49.9896C165.854 50.12 165.676 50.1934 165.491 50.1936Z" fill="#94ABBF"/>
<path d="M43.6476 23.6699C43.3934 23.6707 43.1877 23.9992 43.1882 24.4036C43.1887 24.8069 43.3941 25.1336 43.6476 25.1344H65.3492C65.6034 25.1336 65.8091 24.8051 65.8086 24.4007C65.8081 23.9974 65.6027 23.6707 65.3492 23.6699H43.6476Z" fill="#E4E4E4"/>
<path d="M43.6476 27.9131C43.3934 27.9139 43.1877 28.2424 43.1882 28.6468C43.1887 29.0501 43.3941 29.3768 43.6476 29.3776H65.3492C65.6034 29.3768 65.8091 29.0483 65.8086 28.6439C65.8081 28.2406 65.6027 27.9139 65.3492 27.9131H43.6476Z" fill="#E4E4E4"/>
<path d="M43.6476 32.1045C43.3934 32.1053 43.1877 32.4338 43.1882 32.8382C43.1887 33.2415 43.3941 33.5682 43.6476 33.569H52.9858C53.2401 33.5682 53.4457 33.2397 53.4452 32.8353C53.4447 32.432 53.2394 32.1053 52.9858 32.1045H43.6476Z" fill="#E4E4E4"/>
<path d="M32.6287 34.4233C35.881 34.4233 38.5176 31.7999 38.5176 28.5637C38.5176 25.3275 35.881 22.7041 32.6287 22.7041C29.3763 22.7041 26.7397 25.3275 26.7397 28.5637C26.7397 31.7999 29.3763 34.4233 32.6287 34.4233Z" fill="#E4E4E4"/>
<path d="M154.567 49.0336C154.525 49.3542 154.555 49.6801 154.653 49.9882C154.752 50.2963 154.917 50.5792 155.137 50.8168C155.358 51.0545 155.628 51.2413 155.928 51.3639C156.229 51.4865 156.553 51.5421 156.878 51.5266L159.821 58.8201L162.159 55.4631L159.005 49.0517C158.943 48.5109 158.684 48.0116 158.276 47.6484C157.869 47.2852 157.341 47.0833 156.794 47.0811C156.247 47.0788 155.718 47.2764 155.308 47.6362C154.897 47.9961 154.634 48.4933 154.567 49.0336Z" fill="#FFB6B6"/>
<path d="M187.751 136.751H185.041L183.751 126.351L187.751 126.351L187.751 136.751Z" fill="#FFB6B6"/>
<path d="M188.442 139.364L179.704 139.364V139.254C179.704 138.357 180.062 137.496 180.7 136.861C181.338 136.227 182.203 135.87 183.105 135.87H183.105L188.442 135.87L188.442 139.364Z" fill="#2F2E41"/>
<path d="M178.883 136.665L176.299 135.851L178.225 125.549L182.038 126.75L178.883 136.665Z" fill="#FFB6B6"/>
<path d="M178.749 139.365L170.419 136.741L170.452 136.636C170.724 135.781 171.327 135.068 172.128 134.654C172.928 134.241 173.861 134.16 174.721 134.431L179.809 136.034L178.749 139.365Z" fill="#2F2E41"/>
<path d="M175.673 85.919C175.673 85.919 171.652 92.201 173.073 97.8078C174.494 103.414 176.041 114.192 176.041 114.192L183.745 132.434L189.488 132.201L183.785 110.692L184.01 96.3115C184.01 96.3115 187.974 89.4385 187.202 87.299C186.43 85.1595 175.673 85.919 175.673 85.919Z" fill="#2F2E41"/>
<path d="M188.809 88.1655C188.809 88.1655 189.304 94.3974 187.757 97.0367C186.209 99.676 184.561 109.721 184.561 109.721L181.931 129.812L176.484 128.048L181.129 105.539L184.78 87.833L188.809 88.1655Z" fill="#2F2E41"/>
<path d="M190.741 57.9971L186.49 55.0902L180.023 54.9033L177.77 57.1005L174.333 58.8469L174.015 87.2992C174.015 87.2992 184.308 92.2081 189.845 89.8386L192.509 67.6744C193.614 63.2756 190.741 57.9971 190.741 57.9971Z" fill="#3F3D56"/>
<path d="M175.197 66.4509H163.86L156.412 53.694L161.255 51.7852L165.356 59.0449L171.293 58.5103L174.999 58.3319C175.593 58.3033 176.187 58.4042 176.737 58.6276C177.288 58.8509 177.783 59.1913 178.188 59.6248C178.592 60.0584 178.897 60.5747 179.08 61.1377C179.263 61.7007 179.321 62.2966 179.248 62.884C179.126 63.8677 178.647 64.7731 177.901 65.43C177.154 66.0868 176.193 66.4499 175.197 66.4509Z" fill="#3F3D56"/>
<path d="M183.784 52.5601C186.881 52.5601 189.392 50.0619 189.392 46.9803C189.392 43.8986 186.881 41.4004 183.784 41.4004C180.687 41.4004 178.176 43.8986 178.176 46.9803C178.176 50.0619 180.687 52.5601 183.784 52.5601Z" fill="#FFB6B6"/>
<path d="M190.541 45.711C190.369 44.486 189.535 43.3228 188.349 42.9517C187.878 41.5906 186.63 40.5885 185.252 40.1517C183.975 39.7467 182.599 39.7748 181.341 40.2316C180.082 40.6884 179.011 41.5481 178.296 42.6759C178.191 42.8409 177.866 43.2464 177.875 43.4433C177.887 43.6935 178.272 43.9518 178.465 44.1095C178.944 44.4777 179.46 44.7949 180.005 45.0557C182.022 46.0959 181.351 47.7307 181.323 49.5832C181.31 50.4835 181.612 51.2521 182.384 51.7664C183.497 52.5085 185.09 52.2132 186.302 51.9154C187.677 51.5774 188.819 50.3758 189.603 49.2173C190.298 48.1912 190.713 46.936 190.541 45.711Z" fill="#2F2E41"/>
<path d="M190.58 65.2617L192.762 89.0775L185.751 88.7034L190.58 65.2617Z" fill="#3F3D56"/>
<path d="M214.737 140H128.908C128.839 140 128.772 139.972 128.723 139.923C128.674 139.874 128.646 139.808 128.646 139.738C128.646 139.669 128.674 139.603 128.723 139.554C128.772 139.504 128.839 139.477 128.908 139.477H214.737C214.807 139.477 214.874 139.504 214.923 139.553C214.972 139.602 215 139.669 215 139.738C215 139.808 214.972 139.874 214.923 139.924C214.874 139.973 214.807 140 214.737 140Z" fill="#CACACA"/>
<path d="M18.5871 137.389H20.689L21.689 129.322H18.5867L18.5871 137.389Z" fill="#9E616A"/>
<path d="M18.0508 136.706L22.1903 136.706C22.8899 136.706 23.561 136.983 24.0558 137.475C24.5505 137.967 24.8284 138.635 24.8285 139.331V139.416L18.0509 139.416L18.0508 136.706Z" fill="#2F2E41"/>
<path d="M37.9609 137.389H40.0628L41.0627 129.322H37.9604L37.9609 137.389Z" fill="#9E616A"/>
<path d="M37.4248 136.706L41.5643 136.706C42.2639 136.706 42.9351 136.983 43.4298 137.475C43.9245 137.967 44.2024 138.635 44.2025 139.331V139.416L37.4249 139.416L37.4248 136.706Z" fill="#2F2E41"/>
<path d="M35.4229 72.5791L36.7945 81.2795L23.7644 81.4502L25.4788 73.0909L35.4229 72.5791Z" fill="#9E616A"/>
<path d="M36.4164 79.1553L40.5665 90.1507L41.0808 135.718H37.5661L29.165 99.1071L21.4498 134.762H18.0208L20.4211 94.6715C20.4211 94.6715 19.7132 86.625 23.3357 81.8768L24.2175 79.342L36.4164 79.1553Z" fill="#2F2E41"/>
<path d="M18.615 87.7271C18.9778 87.6287 19.3145 87.4524 19.6014 87.2105C19.8883 86.9687 20.1184 86.6671 20.2756 86.3272C20.4327 85.9873 20.513 85.6172 20.5108 85.243C20.5086 84.8689 20.4241 84.4998 20.263 84.1616L25.8063 66.1792L21.729 65.375L16.6591 83.0015C16.1062 83.3084 15.6856 83.8064 15.4771 84.4012C15.2686 84.996 15.2865 85.6463 15.5276 86.2287C15.7687 86.8112 16.2161 87.2855 16.7852 87.5617C17.3542 87.8378 18.0053 87.8967 18.615 87.7271Z" fill="#9E616A"/>
<path d="M25.9259 77.3846C25.8498 77.3846 25.7739 77.3771 25.6993 77.3624C25.4484 77.3124 25.2209 77.1821 25.0514 76.9914C24.8819 76.8007 24.7799 76.56 24.7608 76.3061C24.6319 74.5502 23.9933 71.4937 22.8626 67.2215C22.4809 65.7695 22.5655 64.235 23.1044 62.8332C23.6433 61.4314 24.6095 60.2325 25.8677 59.4047C27.1258 58.5768 28.6128 58.1614 30.1201 58.2168C31.6274 58.2722 33.0796 58.7955 34.273 59.7134C35.0371 60.2958 35.6748 61.026 36.1477 61.8602C36.6207 62.6943 36.9191 63.6151 37.025 64.567C37.5869 69.4909 36.5275 74.4347 36.046 76.3316C35.9827 76.5793 35.8396 76.7994 35.6385 76.9584C35.4375 77.1174 35.1897 77.2064 34.9329 77.2118L25.9509 77.3843C25.9425 77.3845 25.9342 77.3846 25.9259 77.3846Z" fill="#3F3D56"/>
<path d="M51.0202 61.5884C50.9663 61.7088 50.922 61.8332 50.8877 61.9606L39.6447 65.762L37.4722 63.8736L34.1794 66.7634L37.6989 70.4784C37.9832 70.7785 38.3577 70.9788 38.7661 71.0491C39.1746 71.1194 39.5949 71.056 39.964 70.8684L51.9947 64.7537C52.4298 65.0193 52.9358 65.1467 53.4454 65.1192C53.9551 65.0916 54.4442 64.9102 54.8478 64.5993C55.2513 64.2884 55.5501 63.8625 55.7045 63.3785C55.8589 62.8944 55.8616 62.3751 55.7121 61.8895C55.5626 61.4039 55.2681 60.9751 54.8677 60.6601C54.4673 60.3452 53.98 60.159 53.4707 60.1263C52.9614 60.0936 52.4541 60.216 52.0164 60.4771C51.5786 60.7383 51.2312 61.1259 51.0202 61.5884Z" fill="#9E616A"/>
<path d="M39.2526 65.9701L35.1541 69.5321C35.0374 69.6334 34.9002 69.7086 34.7518 69.7524C34.6034 69.7962 34.4472 69.8077 34.2939 69.7861C34.1406 69.7644 33.9938 69.7101 33.8635 69.627C33.7331 69.5438 33.6224 69.4336 33.5387 69.304L30.6071 64.7616C30.0888 64.1651 29.8295 63.3883 29.8861 62.6018C29.9426 61.8152 30.3105 61.0831 30.9089 60.5661C31.5073 60.0491 32.2874 59.7894 33.078 59.8441C33.8687 59.8987 34.6052 60.2632 35.126 60.8575L39.2428 64.3467C39.3606 64.4467 39.4554 64.5707 39.5207 64.7104C39.586 64.8501 39.6203 65.0021 39.6213 65.1562C39.6222 65.3102 39.5898 65.4627 39.5261 65.6031C39.4625 65.7436 39.3692 65.8688 39.2526 65.9701Z" fill="#3F3D56"/>
<path d="M25.1588 70.7828L20.0939 68.8029C19.9498 68.7466 19.8195 68.66 19.7121 68.549C19.6046 68.4381 19.5225 68.3055 19.4712 68.1601C19.4199 68.0147 19.4007 67.8601 19.4149 67.7067C19.4292 67.5532 19.4764 67.4047 19.5535 67.2711L22.2559 62.5901C22.5497 61.858 23.1233 61.2717 23.8509 60.9598C24.5784 60.6479 25.4006 60.6358 26.1372 60.9262C26.8737 61.2166 27.4645 61.7858 27.7799 62.5089C28.0952 63.232 28.1096 64.0501 27.8197 64.7838L26.6025 70.0265C26.5676 70.1766 26.5006 70.3175 26.4061 70.4395C26.3116 70.5615 26.1917 70.6618 26.0547 70.7336C25.9177 70.8054 25.7667 70.8469 25.6121 70.8554C25.4575 70.8639 25.3029 70.8391 25.1588 70.7828Z" fill="#3F3D56"/>
<path d="M28.9132 57.1085C31.956 57.1085 34.4226 54.6541 34.4226 51.6265C34.4226 48.5989 31.956 46.1445 28.9132 46.1445C25.8705 46.1445 23.4038 48.5989 23.4038 51.6265C23.4038 54.6541 25.8705 57.1085 28.9132 57.1085Z" fill="#9E616A"/>
<path d="M86.0916 140H0.263158C0.193488 140 0.126741 139.972 0.0775479 139.923C0.0283551 139.874 0.000732422 139.808 0.000732422 139.738C0.000732422 139.669 0.0283551 139.603 0.0775479 139.554C0.126741 139.504 0.193488 139.477 0.263158 139.477H86.0916C86.1613 139.477 86.228 139.504 86.2772 139.554C86.3264 139.603 86.354 139.669 86.354 139.738C86.354 139.808 86.3264 139.874 86.2772 139.923C86.228 139.972 86.1613 140 86.0916 140Z" fill="#CACACA"/>
<path d="M32.7034 49.423C33.8854 49.4164 35.0675 49.4098 36.2495 49.4031C36.3336 48.6015 35.975 47.804 35.4527 47.1881C34.9021 46.5955 34.2743 46.0791 33.5858 45.6525C32.9078 45.1895 32.2054 44.716 31.3994 44.5542C30.7237 44.4186 30.0254 44.5127 29.3429 44.6071C28.4377 44.7324 27.5325 44.8576 26.6274 44.9828C25.6338 45.1203 24.5942 45.2758 23.7872 45.8687C22.6958 46.6705 22.2783 48.0755 21.9277 49.3795L19.9866 56.597L31.452 57.7936C31.8668 57.8647 32.2916 57.8524 32.7015 57.7575C32.9057 57.7065 33.0902 57.5969 33.2323 57.4423C33.3743 57.2878 33.4676 57.0951 33.5005 56.8882C33.5336 56.423 33.1626 56.0421 32.8614 55.6848C32.1428 54.7988 31.7114 53.7166 31.6244 52.5814C31.5374 51.4462 31.7988 50.3114 32.3741 49.3273L32.7034 49.423Z" fill="#2F2E41"/>
</g>
<defs>
<clipPath id="clip0_383_597">
<rect width="215" height="140" fill="white"/>
</clipPath>
</defs>
</svg>
