<svg width="292" height="222" viewBox="0 0 292 222" fill="none" xmlns="http://www.w3.org/2000/svg">
<g clip-path="url(#clip0_555_623)">
<path d="M122.949 0L122.814 0.605764L233.544 0.74039C265.419 0.74039 291.258 26.543 291.258 58.3725V126.237H292V8.39974C292 3.76069 288.234 0 283.588 0H122.949Z" fill="#5F5D5D"/>
<path d="M244.906 28.8968C246.637 28.8968 248.041 27.464 248.041 25.6965C248.041 23.9289 246.637 22.4961 244.906 22.4961C243.174 22.4961 241.771 23.9289 241.771 25.6965C241.771 27.464 243.174 28.8968 244.906 28.8968Z" fill="#3F3D56"/>
<path d="M234.075 28.8968C235.807 28.8968 237.211 27.464 237.211 25.6965C237.211 23.9289 235.807 22.4961 234.075 22.4961C232.344 22.4961 230.94 23.9289 230.94 25.6965C230.94 27.464 232.344 28.8968 234.075 28.8968Z" fill="#3F3D56"/>
<path d="M223.245 28.8968C224.977 28.8968 226.38 27.464 226.38 25.6965C226.38 23.9289 224.977 22.4961 223.245 22.4961C221.514 22.4961 220.11 23.9289 220.11 25.6965C220.11 27.464 221.514 28.8968 223.245 28.8968Z" fill="#3F3D56"/>
<path d="M197.591 74.1007H153.744C152.239 74.1007 151.016 72.8786 151.016 71.3765C151.016 69.8745 152.239 68.6523 153.744 68.6523H197.591C199.095 68.6523 200.319 69.8745 200.319 71.3765C200.319 72.8786 199.095 74.1007 197.591 74.1007Z" fill="#5F5D5D"/>
<path d="M231.809 83.3214H153.744C152.239 83.3214 151.016 82.0993 151.016 80.5972C151.016 79.0952 152.239 77.873 153.744 77.873H231.809C233.313 77.873 234.537 79.0952 234.537 80.5972C234.537 82.0993 233.313 83.3214 231.809 83.3214Z" fill="#5F5D5D"/>
<path d="M246.582 97.643H138.972C136.649 97.643 134.759 95.7555 134.759 93.4356V58.5374C134.759 56.2176 136.649 54.3301 138.972 54.3301H246.582C248.905 54.3301 250.796 56.2176 250.796 58.5374V93.4356C250.796 95.7555 248.905 97.643 246.582 97.643ZM138.972 55.0705C137.058 55.0705 135.5 56.6257 135.5 58.5374V93.4356C135.5 95.3473 137.058 96.9026 138.972 96.9026H246.582C248.497 96.9026 250.054 95.3473 250.054 93.4356V58.5374C250.054 56.6257 248.497 55.0705 246.582 55.0705H138.972Z" fill="#3F3D56"/>
<path d="M248.625 106.986C253.743 106.986 257.893 102.843 257.893 97.7315C257.893 92.6201 253.743 88.4766 248.625 88.4766C243.506 88.4766 239.356 92.6201 239.356 97.7315C239.356 102.843 243.506 106.986 248.625 106.986Z" fill="#94ABBF"/>
<path d="M250.895 94.7624C250.154 93.8694 248.916 93.3425 247.766 93.6781C246.713 93.9855 245.836 94.9815 245.934 96.1179C245.98 96.6453 246.195 97.152 246.565 97.5349C246.983 97.9674 247.516 98.1167 248.1 98.1659C248.724 98.2185 249.259 98.3111 249.674 98.8241C250.035 99.2703 250.148 99.8621 249.941 100.402C249.449 101.684 247.71 101.833 246.983 100.68C246.698 100.228 245.976 100.645 246.263 101.101C246.856 102.041 248.061 102.558 249.144 102.207C250.198 101.865 250.972 100.774 250.874 99.6582C250.772 98.4996 249.848 97.5449 248.7 97.3879C248.096 97.3052 247.463 97.3712 247.054 96.8309C246.734 96.4087 246.666 95.8249 246.908 95.3517C247.202 94.7742 247.844 94.4111 248.486 94.4099C249.215 94.4085 249.852 94.8052 250.305 95.3514C250.648 95.7645 251.235 95.1724 250.895 94.7624Z" fill="white"/>
<path d="M247.65 92.0042L247.249 103.654C247.237 104.011 247.793 104.011 247.805 103.654L248.206 92.0042C248.218 91.6468 247.662 91.6473 247.65 92.0042Z" fill="white"/>
<path d="M248.947 92.0042L248.546 103.654C248.534 104.011 249.09 104.011 249.102 103.654L249.503 92.0042C249.515 91.6468 248.959 91.6473 248.947 92.0042Z" fill="white"/>
<path d="M35.1072 217.189L39.045 217.188L40.9182 202.021L35.1064 202.022L35.1072 217.189Z" fill="#A0616A"/>
<path d="M34.9689 221.291L47.0781 221.291V221.138C47.078 218.539 44.9678 216.432 42.3649 216.432L40.1527 214.756L36.0258 216.432L34.9688 216.432L34.9689 221.291Z" fill="#2F2E41"/>
<path d="M59.1727 217.189L63.1104 217.188L64.9837 202.021L59.1719 202.022L59.1727 217.189Z" fill="#A0616A"/>
<path d="M59.0344 221.291L71.1436 221.291V221.138C71.1434 218.539 69.0333 216.432 66.4303 216.432L64.2181 214.756L60.0912 216.432L59.0342 216.432L59.0344 221.291Z" fill="#2F2E41"/>
<path d="M31.6289 120.701L67.6399 119.701L67.4092 139.988L65.5094 163.703C65.5094 163.703 69.9423 181.093 66.1426 198.483L65.826 211.763L55.6935 211.131C55.6935 211.131 53.952 185.045 56.1685 175.243L49.5191 139.83L43.1863 174.295C43.1863 174.295 44.1362 194.215 41.6031 202.119V209.57H34.4388C34.4388 209.57 26.721 183.464 32.4205 170.184L31.6289 120.701Z" fill="#2F2E41"/>
<path d="M57.5301 61.75C57.5301 61.75 56.5583 59.3153 55.8328 58.2285C50.7539 58.2285 50.1086 58.5768 45.6751 58.2285L33.3685 124.207C33.3685 124.207 26.6026 129.9 34.0321 129.9C41.4616 129.9 52.1739 127.83 55.1112 129.383C58.0484 130.936 67.3785 128.52 67.3785 128.52L57.5301 61.75Z" fill="#94ABBF"/>
<path d="M45.8783 58.0957L41.3223 62.936L38.3134 62.9757C35.5305 63.0124 33.3 65.287 33.3217 68.066L34.2652 95.7922C34.2652 95.7922 25.7389 122.169 31.4407 123.204L30.404 127.172L41.3414 133.901C41.3414 133.901 44.6586 116.182 45.1769 112.214C45.6952 108.246 48.2712 85.8823 48.2712 85.8823C48.2712 85.8823 47.7686 67.4859 47.423 65.7816L45.8783 58.0957Z" fill="#2F2E41"/>
<path d="M55.9756 58.2988L53.7295 69.8585L59.4312 100.397C59.4312 100.397 58.049 128.692 62.3684 131.453L69.1757 129.693L68.6574 124.172C68.6574 124.172 69.2796 122.826 68.934 117.65C68.5885 112.474 66.5522 103.039 66.5522 103.039L69.5681 68.6508C69.5681 68.6508 62.0229 61.5769 58.7401 62.4396L55.9756 58.2988Z" fill="#2F2E41"/>
<path d="M18.7433 123.293L19.4458 113.881L24.8865 113.531L23.7891 123.456C23.965 123.706 24.1081 123.984 24.2085 124.289C24.7547 125.946 23.8521 127.732 22.1923 128.278C20.5326 128.823 18.7443 127.922 18.1981 126.264C17.8497 125.207 18.0925 124.1 18.7433 123.293Z" fill="#A0616A"/>
<path d="M39.6934 63.0898L36.8272 63.1372C34.7087 63.1723 32.8364 64.522 32.1363 66.519L21.3958 97.1558L20.2809 102.869C20.2809 102.869 15.1286 115.205 17.0603 117.071L17.9813 120.507L24.8133 120.394L24.7666 117.579C24.7666 117.579 26.8528 117.384 26.8429 114.904C26.8429 114.904 32.2496 105.604 30.819 102.694L34.5023 95.5587L39.6934 63.0898Z" fill="#2F2E41"/>
<path d="M106.799 111.339L99.865 104.924L95.6426 108.368L103.215 114.889C103.256 115.192 103.341 115.493 103.476 115.784C104.206 117.37 106.085 118.063 107.672 117.334C109.259 116.605 109.954 114.729 109.224 113.144C108.758 112.133 107.825 111.487 106.799 111.339Z" fill="#A0616A"/>
<path d="M65.1876 65.2344L61.71 78.6493L73.8889 95.3628L77.8542 99.6286C77.8542 99.6286 94.9325 112.952 97.5807 112.493L100.903 113.775L104.838 108.196L102.532 106.575C102.532 106.575 103.604 104.776 101.591 103.323C101.591 103.323 87.1201 91.584 83.9228 91.0237L80.3196 83.8473L69.3093 68.5313L65.1876 65.2344Z" fill="#2F2E41"/>
<path d="M56.9016 55.3305C56.8541 55.3685 56.8097 55.397 56.7621 55.4255C56.3943 55.6693 56.0106 55.8878 55.6079 56.0746C55.6015 56.081 55.592 56.0841 55.5825 56.0873C54.8564 56.4293 54.0731 56.6857 53.2455 56.8377C52.3989 56.9929 51.5586 57.0341 50.7404 56.9676C46.5263 56.6351 42.8987 53.5225 42.0933 49.175C41.8237 47.7247 41.8998 46.2935 42.2581 44.9604C43.1872 41.5154 46.0189 38.7352 49.767 38.0418C54.9642 37.0824 59.9552 40.5116 60.9161 45.7014C61.6264 49.5391 59.933 53.266 56.9016 55.3305Z" fill="#A0616A"/>
<path d="M45.6756 55.0965L46.2529 52.4341C46.2529 52.4341 44.6814 51.0683 46.2529 49.7982L47.1082 49.2434H48.4139L49.2572 44.9515L54.6297 44.5939C54.6297 44.5939 60.0022 43.5209 60.7185 41.7326C60.7185 41.7326 58.9277 41.375 59.2858 39.9443C59.2858 39.9443 54.9878 34.5795 51.048 36.0101C47.1082 37.4408 45.6755 38.8714 45.6755 38.8714C45.6755 38.8714 39.2285 37.7984 39.2285 45.6668C39.2285 53.5353 45.6756 55.0965 45.6756 55.0965Z" fill="#2F2E41"/>
<path d="M104.562 123.788H93.7385C92.565 123.788 91.6104 122.834 91.6104 121.662V101.01C91.6104 99.8381 92.565 98.8848 93.7385 98.8848H104.562C105.736 98.8848 106.69 99.8381 106.69 101.01V121.662C106.69 122.834 105.736 123.788 104.562 123.788Z" fill="#3F3D56"/>
<path d="M106.691 106.482C106.641 106.482 106.601 106.523 106.601 106.572V109.449C106.601 109.499 106.641 109.539 106.691 109.539C106.74 109.539 106.781 109.499 106.781 109.449V106.572C106.781 106.523 106.74 106.482 106.691 106.482Z" fill="#3F3D56"/>
<path d="M106.488 101.009V121.661C106.488 122.681 105.693 123.515 104.688 123.58H104.688C104.673 123.581 104.658 123.582 104.643 123.582C104.616 123.584 104.59 123.584 104.563 123.584C104.563 123.584 104.464 123.577 104.283 123.564C104.1 123.55 103.834 123.53 103.502 123.503C103.403 123.496 103.298 123.487 103.187 123.478C102.966 123.46 102.724 123.44 102.465 123.418C102.361 123.409 102.254 123.4 102.144 123.39C101.585 123.342 100.959 123.286 100.299 123.222C100.187 123.212 100.075 123.201 99.9612 123.19C99.9315 123.187 99.9013 123.184 99.8712 123.181C99.4003 123.135 98.9164 123.085 98.4307 123.032C98.4005 123.029 98.3704 123.025 98.3407 123.022C97.5038 122.93 96.6639 122.83 95.8779 122.722C95.2733 122.639 94.7008 122.552 94.1867 122.462C94.0192 122.432 93.8581 122.402 93.7041 122.372C93.674 122.366 93.6438 122.361 93.6141 122.354C92.5261 122.137 91.8135 121.902 91.8135 121.661V101.009C91.8135 99.9468 92.6755 99.0859 93.7392 99.0859H94.8889C95.0726 99.0859 95.2202 99.2289 95.236 99.4118C95.2373 99.424 95.2387 99.4361 95.2409 99.4483C95.2742 99.6321 95.443 99.7602 95.6303 99.7602H102.672C102.859 99.7602 103.028 99.6321 103.061 99.4483C103.063 99.4361 103.065 99.424 103.066 99.4118C103.082 99.2289 103.229 99.0859 103.413 99.0859H104.563C105.626 99.0859 106.488 99.9468 106.488 101.009Z" fill="#94ABBF"/>
<path d="M91.5656 104.324C91.516 104.324 91.4756 104.365 91.4756 104.414V105.133C91.4756 105.183 91.516 105.223 91.5656 105.223C91.6153 105.223 91.6556 105.183 91.6556 105.133V104.414C91.6556 104.365 91.6153 104.324 91.5656 104.324Z" fill="#3F3D56"/>
<path d="M91.5656 106.482C91.516 106.482 91.4756 106.523 91.4756 106.572V107.966C91.4756 108.015 91.516 108.056 91.5656 108.056C91.6153 108.056 91.6556 108.015 91.6556 107.966V106.572C91.6556 106.523 91.6153 106.482 91.5656 106.482Z" fill="#3F3D56"/>
<path d="M91.5656 108.459C91.516 108.459 91.4756 108.499 91.4756 108.549V109.942C91.4756 109.992 91.516 110.032 91.5656 110.032C91.6153 110.032 91.6556 109.992 91.6556 109.942V108.549C91.6556 108.499 91.6153 108.459 91.5656 108.459Z" fill="#3F3D56"/>
<path d="M94.7612 99.4023H93.2307C93.1685 99.4023 93.1182 99.4527 93.1182 99.5147C93.1182 99.5768 93.1685 99.6271 93.2307 99.6271H94.7612C94.8234 99.6271 94.8738 99.5768 94.8738 99.5147C94.8738 99.4527 94.8234 99.4023 94.7612 99.4023Z" fill="#3F3D56"/>
<path d="M103.698 99.6272C103.797 99.6272 103.878 99.5467 103.878 99.4474C103.878 99.3481 103.797 99.2676 103.698 99.2676C103.598 99.2676 103.518 99.3481 103.518 99.4474C103.518 99.5467 103.598 99.6272 103.698 99.6272Z" fill="#3F3D56"/>
<path d="M104.193 99.6272C104.292 99.6272 104.373 99.5467 104.373 99.4474C104.373 99.3481 104.292 99.2676 104.193 99.2676C104.093 99.2676 104.013 99.3481 104.013 99.4474C104.013 99.5467 104.093 99.6272 104.193 99.6272Z" fill="#3F3D56"/>
<path d="M104.688 99.6272C104.787 99.6272 104.868 99.5467 104.868 99.4474C104.868 99.3481 104.787 99.2676 104.688 99.2676C104.588 99.2676 104.508 99.3481 104.508 99.4474C104.508 99.5467 104.588 99.6272 104.688 99.6272Z" fill="#3F3D56"/>
<path d="M99.3899 117.225C102.538 117.225 105.089 114.676 105.089 111.533C105.089 108.39 102.538 105.842 99.3899 105.842C96.2422 105.842 93.6904 108.39 93.6904 111.533C93.6904 114.676 96.2422 117.225 99.3899 117.225Z" fill="white"/>
<path d="M100.787 109.708C100.331 109.159 99.5696 108.835 98.8624 109.041C98.2147 109.23 97.6756 109.843 97.7361 110.542C97.7641 110.866 97.8965 111.178 98.124 111.413C98.3811 111.679 98.7086 111.771 99.068 111.801C99.4514 111.833 99.7805 111.89 100.036 112.206C100.258 112.48 100.327 112.844 100.2 113.176C99.8977 113.964 98.8282 114.056 98.3811 113.347C98.2057 113.069 97.7616 113.326 97.9382 113.606C98.3028 114.184 99.0439 114.502 99.7101 114.286C100.358 114.076 100.834 113.405 100.774 112.719C100.711 112.006 100.143 111.419 99.4371 111.323C99.0653 111.272 98.6763 111.312 98.4247 110.98C98.2282 110.72 98.186 110.361 98.3345 110.07C98.5159 109.715 98.9103 109.492 99.3051 109.491C99.7534 109.49 100.145 109.734 100.424 110.07C100.635 110.324 100.996 109.96 100.787 109.708Z" fill="#94ABBF"/>
<path d="M98.7906 108.012L98.5441 115.176C98.5365 115.396 98.8785 115.396 98.886 115.176L99.1325 108.012C99.1401 107.793 98.7981 107.793 98.7906 108.012Z" fill="#94ABBF"/>
<path d="M99.5884 108.012L99.3419 115.176C99.3344 115.396 99.6763 115.396 99.6839 115.176L99.9304 108.012C99.938 107.793 99.596 107.793 99.5884 108.012Z" fill="#94ABBF"/>
<path d="M19.6838 215.721C18.9343 215.768 18.5201 214.838 19.0871 214.296L19.1435 214.072C19.1361 214.054 19.1286 214.036 19.1211 214.018C18.3632 212.214 15.7945 212.226 15.043 214.034C14.376 215.638 13.5268 217.245 13.3177 218.941C13.224 219.689 13.2662 220.452 13.4326 221.187C11.8697 217.778 11.0473 214.055 11.0473 210.312C11.0473 209.371 11.0988 208.43 11.2042 207.492C11.2909 206.725 11.4104 205.962 11.5651 205.206C12.4016 201.121 14.2128 197.23 16.8254 193.98C18.0813 193.294 19.1287 192.223 19.7613 190.938C19.9886 190.475 20.1667 189.977 20.251 189.469C20.1081 189.488 19.7121 187.314 19.8199 187.181C19.6207 186.879 19.2642 186.729 19.0467 186.434C17.9647 184.969 16.4741 185.225 15.696 187.216C14.0337 188.053 14.0176 189.443 15.0376 190.779C15.6865 191.629 15.7757 192.78 16.345 193.69C16.2864 193.765 16.2255 193.837 16.167 193.912C15.0928 195.288 14.1637 196.767 13.3805 198.32C13.6018 196.594 13.275 194.514 12.7179 193.173C12.0837 191.645 10.895 190.358 9.84817 189.038C8.59079 187.451 6.01242 188.143 5.79089 190.154C5.78875 190.174 5.78666 190.193 5.78461 190.213C5.9401 190.3 6.09242 190.394 6.24122 190.492C7.08993 191.052 6.79661 192.366 5.79099 192.521L5.76822 192.525C5.82446 193.084 5.92052 193.638 6.0611 194.184C4.71818 199.37 7.61744 201.258 11.7572 201.343C11.8486 201.39 11.9376 201.437 12.029 201.481C11.6096 202.661 11.2745 203.87 11.0262 205.096C10.8036 206.18 10.6489 207.275 10.5622 208.374C10.4544 209.762 10.4638 211.156 10.581 212.541L10.5739 212.492C10.2764 210.967 9.44691 209.542 8.24253 208.554C6.44839 207.083 3.9136 206.541 1.97804 205.358C1.04631 204.788 -0.147622 205.524 0.0149878 206.603L0.0229036 206.654C0.311103 206.771 0.592268 206.907 0.864074 207.059C1.01956 207.147 1.17188 207.24 1.32068 207.338C2.16939 207.899 1.87607 209.212 0.870448 209.367L0.847658 209.371C0.831261 209.373 0.817196 209.376 0.80082 209.378C1.29522 210.55 1.98408 211.638 2.84634 212.576C3.68603 217.104 7.29252 217.533 11.1503 216.215H11.1527C11.5745 218.049 12.1907 219.841 12.9827 221.549H19.52C19.5434 221.477 19.5645 221.402 19.5856 221.33C18.981 221.367 18.3718 221.332 17.7767 221.222C18.2617 220.628 18.7467 220.029 19.2318 219.434C19.2435 219.423 19.2529 219.411 19.2622 219.399C19.5082 219.095 19.7566 218.793 20.0026 218.489L20.0028 218.489C20.0182 217.555 19.9059 216.624 19.6838 215.721Z" fill="#F2F2F2"/>
<path d="M92.8015 221.57C92.8015 221.809 92.6092 222.001 92.3698 222.001H0.482484C0.243063 222.001 0.0507812 221.809 0.0507812 221.57C0.0507812 221.331 0.243063 221.139 0.482484 221.139H92.3698C92.6092 221.139 92.8015 221.331 92.8015 221.57Z" fill="#010101"/>
</g>
<defs>
<clipPath id="clip0_555_623">
<rect width="292" height="222" fill="white"/>
</clipPath>
</defs>
</svg>
