<svg width="31" height="31" viewBox="0 0 31 31" fill="none" xmlns="http://www.w3.org/2000/svg">
<rect x="0.402344" y="0.988281" width="30" height="29.9801" rx="4.79843" fill="#94ABBF"/>
<path d="M15.2242 23.0403C11.2516 23.0403 7.96094 19.7589 7.96094 15.7819C7.96094 11.8119 11.2445 8.52344 15.2172 8.52344C19.1969 8.52344 22.4875 11.8119 22.4875 15.7819C22.4875 19.7589 19.1969 23.0403 15.2242 23.0403ZM11.7859 15.7889C11.7859 16.1894 12.0742 16.4705 12.482 16.4705H14.5352V18.5293C14.5352 18.9298 14.8164 19.2179 15.2172 19.2179C15.625 19.2179 15.9133 18.9298 15.9133 18.5293V16.4705H17.9734C18.3742 16.4705 18.6625 16.1894 18.6625 15.7889C18.6625 15.3814 18.3742 15.0933 17.9734 15.0933H15.9133V13.0345C15.9133 12.634 15.625 12.3389 15.2172 12.3389C14.8164 12.3389 14.5352 12.634 14.5352 13.0345V15.0933H12.482C12.0742 15.0933 11.7859 15.3814 11.7859 15.7889Z" fill="#C1FFB1"/>
</svg>
