<svg width="22" height="23" viewBox="0 0 22 23" fill="none" xmlns="http://www.w3.org/2000/svg">
<path d="M20.4891 2.04296C21.6958 3.2496 21.9183 4.90141 21.9183 7.03352V16.0189C21.9183 18.1627 21.6958 19.8145 20.4891 21.0211C19.2825 22.2161 17.619 22.4504 15.4868 22.4504H6.50149C4.36937 22.4504 2.70585 22.2161 1.4875 21.0211C0.292578 19.8145 0.0699942 18.1627 0.0699942 16.0189V7.01009C0.0699942 4.90141 0.292578 3.2496 1.49922 2.04296C2.69414 0.848041 4.36937 0.613742 6.46635 0.613742H15.4868C17.619 0.613742 19.2825 0.836326 20.4891 2.04296ZM19.6222 6.71722C19.6222 5.49887 19.4699 4.37423 18.8139 3.72991C18.1578 3.07388 17.0215 2.89815 15.8149 2.89815H6.1969C4.96683 2.89815 3.81877 3.06216 3.16274 3.7182C2.51841 4.37423 2.36612 5.49887 2.36612 6.74065V16.3469C2.36612 17.5652 2.51841 18.6782 3.17445 19.3342C3.83049 19.9902 4.96683 20.1542 6.17347 20.1542H15.8149C17.0215 20.1542 18.1578 19.9902 18.8139 19.3342C19.4582 18.6782 19.6222 17.5652 19.6222 16.3469V6.71722ZM11 17.7175C7.63784 17.7175 4.82626 14.906 4.82626 11.5438C4.82626 8.16987 7.62612 5.35829 11 5.35829C14.3622 5.35829 17.1738 8.16987 17.1738 11.5438C17.1738 14.9177 14.3739 17.7175 11 17.7175ZM11 7.26782C10.18 7.26782 9.40679 7.51384 8.75076 7.92386L14.6082 13.7813C15.0182 13.1253 15.2643 12.3638 15.2643 11.5438C15.2643 9.23593 13.3079 7.26782 11 7.26782ZM11 15.8197C11.8201 15.8197 12.5933 15.5737 13.2493 15.152L7.39182 9.2945C6.9818 9.95054 6.73579 10.7237 6.73579 11.5438C6.73579 13.8516 8.69218 15.8197 11 15.8197Z" fill="black"/>
</svg>
