<svg width="31" height="31" viewBox="0 0 31 31" fill="none" xmlns="http://www.w3.org/2000/svg">
<rect x="0.597656" y="0.988281" width="30" height="29.9801" rx="4.79843" fill="#94ABBF"/>
<path d="M15.4234 23.0403C11.4508 23.0403 8.16016 19.7589 8.16016 15.7819C8.16016 11.8119 11.4437 8.52344 15.4164 8.52344C19.3961 8.52344 22.6867 11.8119 22.6867 15.7819C22.6867 19.7589 19.3961 23.0403 15.4234 23.0403ZM12.6602 16.4775H18.1937C18.6367 16.4775 18.9391 16.2246 18.9391 15.7959C18.9391 15.3673 18.6508 15.1003 18.1937 15.1003H12.6602C12.2031 15.1003 11.9078 15.3673 11.9078 15.7959C11.9078 16.2246 12.2172 16.4775 12.6602 16.4775Z" fill="#FFD0D0"/>
</svg>
