<svg width="30" height="31" viewBox="0 0 30 31" fill="none" xmlns="http://www.w3.org/2000/svg">
<rect y="0.988281" width="30" height="29.9801" rx="4.79843" fill="#94ABBF"/>
<path d="M4.19922 16.2182C4.19922 16.0074 4.28359 15.8072 4.46289 15.6333L8.18066 12.1554C8.48652 11.8708 8.66055 11.7812 8.91367 11.7812C9.29863 11.7812 9.59395 12.0922 9.59395 12.4768V14.2052H13.0428C13.8549 14.2052 14.3453 14.69 14.3453 15.4805V16.9559C14.3453 17.7411 13.8496 18.2364 13.0428 18.2364H9.59395V19.9807C9.59395 20.3601 9.30918 20.6499 8.91895 20.6499C8.65 20.6499 8.43906 20.5498 8.18066 20.3021L4.46289 16.7979C4.28887 16.6345 4.19922 16.429 4.19922 16.2182ZM25.815 16.2182C25.815 16.429 25.7254 16.6345 25.5514 16.7979L21.8283 20.3074C21.5699 20.5445 21.3643 20.6499 21.0953 20.6499C20.7051 20.6499 20.4203 20.3601 20.4203 19.9807V18.2364H16.9715C16.1646 18.2364 15.6689 17.7411 15.6689 16.9559V15.4857C15.6689 14.69 16.1594 14.2052 16.9715 14.2052H20.4203V12.4821C20.4203 12.0922 20.7156 11.7865 21.1006 11.7865C21.359 11.7865 21.5277 11.8761 21.8283 12.1554L25.5514 15.6333C25.7307 15.8072 25.815 16.0127 25.815 16.2182Z" fill="#C7DDFF"/>
</svg>
